<!DOCTYPE html>
<svg xmlns="http://www.w3.org/2000/svg" xmlns:xlink="http://www.w3.org/1999/xlink" width="640" height="640" viewBox="-12.8 -12.8 25.6 25.6">
	<path d="M 0.00000 -12.00000 C 6.62742 -12.00000 12.00000 -6.62742 12.00000 0.00000 C 12.00000 6.62742 6.62742 12.00000 0.00000 12.00000 C -6.62742 12.00000 -12.00000 6.62742 -12.00000 0.00000 C -12.00000 -6.62742 -6.62742 -12.00000 0.00000 -12.00000 L 0.00000 -11.00000 C -6.07513 -11.00000 -11.00000 -6.07513 -11.00000 0.00000 C -11.00000 6.07513 -6.07513 11.00000 0.00000 11.00000 C 6.07513 11.00000 11.00000 6.07513 11.00000 0.00000 C 11.00000 -6.07513 6.07513 -11.00000 0.00000 -11.00000 Z M -7.57532 -6.52798 C -5.78940 -8.60043 -3.23237 -9.85070 -0.50000 -9.98749 L -6.42792 6.29935 C -4.85629 7.90306 -2.74195 8.86135 -0.50000 8.98610 L -0.50000 9.98749 C -3.23237 9.85070 -5.78940 8.60043 -7.57532 6.52798 L -2.00600 -8.77359 C -3.87808 -8.34556 -5.56416 -7.32994 -6.81779 -5.87518 Z M 1.50000 -8.87412 L 1.50000 9.88686 C 1.16856 9.93714 0.83481 9.97073 0.50000 9.98749 L 0.50000 -9.98749 C 6.01594 -9.71135 10.26363 -5.01594 9.98749 0.50000 L 2.20711 0.50000 L 7.87292 6.16581 C 7.66675 6.42907 7.44750 6.68181 7.21600 6.92310 L 1.50000 1.20711 L 1.50000 -0.50000 L 8.98610 -0.50000 C 8.75257 -4.69709 5.64479 -8.17352 1.50000 -8.87412 Z" fill="#000000"/>
	<path d="M -8.19015 -5.73773 C -10.56408 -2.34913 -10.60610 2.15148 -8.29585 5.58381 L -7.85951 4.38499 C -9.52309 1.40325 -9.35610 -2.26310 -7.42837 -5.08127 Z M 9.88686 1.50000 C 9.67998 2.86357 9.19328 4.16961 8.45735 5.33603 L 7.73029 4.60897 C 8.30065 3.65235 8.68850 2.59817 8.87412 1.50000 Z M 6.48815 7.60947 C 5.33329 8.59415 3.96946 9.30305 2.50000 9.68246 L 2.50000 8.64581 C 3.70237 8.29814 4.81900 7.70350 5.77856 6.89988 Z" fill="#969696"/>
</svg>